<svg width="433" height="180" viewBox="0 0 433 180" fill="none" xmlns="http://www.w3.org/2000/svg">
<path d="M0 0H433V180H0V0Z" fill="#FBFBFB"/>
<path d="M174.35 68.76C174.35 69.54 174.54 70.22 174.92 70.8C175.3 71.38 175.76 71.87 176.3 72.27C176.86 72.65 177.62 73.13 178.58 73.71C179.64 74.35 180.45 74.88 181.01 75.3C181.59 75.72 182.08 76.26 182.48 76.92C182.9 77.56 183.11 78.33 183.11 79.23C183.11 80.19 182.87 81.06 182.39 81.84C181.91 82.62 181.2 83.24 180.26 83.7C179.34 84.14 178.23 84.36 176.93 84.36C175.39 84.36 173.98 84.01 172.7 83.31C172.6 83.25 172.53 83.18 172.49 83.1C172.47 83.02 172.45 82.9 172.43 82.74L172.04 78.66C172.02 78.58 172.06 78.53 172.16 78.51C172.28 78.49 172.35 78.52 172.37 78.6C172.69 80.04 173.28 81.28 174.14 82.32C175.02 83.36 176.18 83.88 177.62 83.88C178.62 83.88 179.46 83.61 180.14 83.07C180.84 82.51 181.19 81.63 181.19 80.43C181.19 79.53 180.99 78.75 180.59 78.09C180.19 77.43 179.7 76.89 179.12 76.47C178.56 76.03 177.79 75.52 176.81 74.94C175.85 74.36 175.09 73.86 174.53 73.44C173.99 73.02 173.53 72.49 173.15 71.85C172.77 71.21 172.58 70.46 172.58 69.6C172.58 68.6 172.84 67.75 173.36 67.05C173.9 66.33 174.59 65.8 175.43 65.46C176.29 65.1 177.2 64.92 178.16 64.92C179.34 64.92 180.51 65.16 181.67 65.64C181.97 65.74 182.12 65.91 182.12 66.15L182.33 69.6C182.33 69.68 182.28 69.72 182.18 69.72C182.08 69.72 182.02 69.68 182 69.6C181.84 68.56 181.41 67.6 180.71 66.72C180.01 65.82 179 65.37 177.68 65.37C176.56 65.37 175.72 65.7 175.16 66.36C174.62 67 174.35 67.8 174.35 68.76ZM199.746 82.29C199.826 82.29 199.876 82.34 199.896 82.44C199.936 82.52 199.916 82.58 199.836 82.62L196.326 84.27L196.206 84.3C196.006 84.3 195.816 84.07 195.636 83.61C195.456 83.15 195.366 82.55 195.366 81.81V81.69C194.586 82.57 193.806 83.22 193.026 83.64C192.246 84.04 191.436 84.24 190.596 84.24C189.596 84.24 188.816 83.93 188.256 83.31C187.696 82.67 187.416 81.75 187.416 80.55V75.96C187.416 75.18 187.346 74.62 187.206 74.28C187.066 73.92 186.836 73.74 186.516 73.74C186.236 73.74 185.896 73.84 185.496 74.04H185.466C185.386 74.04 185.326 73.99 185.286 73.89C185.246 73.77 185.266 73.7 185.346 73.68L188.676 72.18L188.796 72.15C188.856 72.15 188.916 72.18 188.976 72.24C189.056 72.28 189.096 72.33 189.096 72.39V79.56C189.096 81.88 189.936 83.04 191.616 83.04C192.256 83.04 192.906 82.88 193.566 82.56C194.226 82.22 194.826 81.76 195.366 81.18V75.96C195.366 75.16 195.296 74.59 195.156 74.25C195.036 73.91 194.806 73.74 194.466 73.74C194.186 73.74 193.846 73.84 193.446 74.04H193.416C193.336 74.04 193.276 73.99 193.236 73.89C193.216 73.77 193.246 73.7 193.326 73.68L196.656 72.18L196.746 72.15C196.806 72.15 196.866 72.18 196.926 72.24C197.006 72.28 197.046 72.33 197.046 72.39V80.79C197.046 81.47 197.126 81.96 197.286 82.26C197.446 82.56 197.716 82.71 198.096 82.71C198.436 82.71 198.966 82.57 199.686 82.29H199.746ZM207.261 84.36C205.961 84.36 204.871 84.08 203.991 83.52C203.111 82.94 202.461 82.2 202.041 81.3C201.621 80.4 201.411 79.45 201.411 78.45C201.411 77.17 201.731 76.06 202.371 75.12C203.011 74.16 203.831 73.43 204.831 72.93C205.851 72.41 206.891 72.15 207.951 72.15C208.831 72.15 209.631 72.33 210.351 72.69C211.091 73.03 211.461 73.46 211.461 73.98C211.461 74.24 211.361 74.47 211.161 74.67C210.981 74.85 210.731 74.94 210.411 74.94C209.871 74.94 209.431 74.61 209.091 73.95C208.831 73.55 208.551 73.25 208.251 73.05C207.951 72.85 207.521 72.75 206.961 72.75C205.841 72.75 204.961 73.19 204.321 74.07C203.701 74.93 203.391 76.09 203.391 77.55C203.391 79.23 203.811 80.61 204.651 81.69C205.491 82.77 206.751 83.31 208.431 83.31C209.651 83.31 210.671 82.98 211.491 82.32H211.521C211.581 82.32 211.631 82.35 211.671 82.41C211.731 82.47 211.741 82.52 211.701 82.56C211.001 83.18 210.291 83.64 209.571 83.94C208.871 84.22 208.101 84.36 207.261 84.36ZM219.819 84.36C218.519 84.36 217.429 84.08 216.549 83.52C215.669 82.94 215.019 82.2 214.599 81.3C214.179 80.4 213.969 79.45 213.969 78.45C213.969 77.17 214.289 76.06 214.929 75.12C215.569 74.16 216.389 73.43 217.389 72.93C218.409 72.41 219.449 72.15 220.509 72.15C221.389 72.15 222.189 72.33 222.909 72.69C223.649 73.03 224.019 73.46 224.019 73.98C224.019 74.24 223.919 74.47 223.719 74.67C223.539 74.85 223.289 74.94 222.969 74.94C222.429 74.94 221.989 74.61 221.649 73.95C221.389 73.55 221.109 73.25 220.809 73.05C220.509 72.85 220.079 72.75 219.519 72.75C218.399 72.75 217.519 73.19 216.879 74.07C216.259 74.93 215.949 76.09 215.949 77.55C215.949 79.23 216.369 80.61 217.209 81.69C218.049 82.77 219.309 83.31 220.989 83.31C222.209 83.31 223.229 82.98 224.049 82.32H224.079C224.139 82.32 224.189 82.35 224.229 82.41C224.289 82.47 224.299 82.52 224.259 82.56C223.559 83.18 222.849 83.64 222.129 83.94C221.429 84.22 220.659 84.36 219.819 84.36ZM236.218 82.32C236.278 82.32 236.328 82.36 236.368 82.44C236.428 82.5 236.438 82.56 236.398 82.62C235.078 83.78 233.618 84.36 232.018 84.36C230.858 84.36 229.868 84.09 229.048 83.55C228.228 83.01 227.598 82.3 227.158 81.42C226.738 80.54 226.528 79.6 226.528 78.6C226.528 77.42 226.808 76.34 227.368 75.36C227.928 74.36 228.688 73.58 229.648 73.02C230.628 72.44 231.698 72.15 232.858 72.15C233.978 72.15 234.838 72.45 235.438 73.05C236.038 73.65 236.338 74.49 236.338 75.57C236.338 75.85 236.308 76.05 236.248 76.17C236.208 76.29 236.128 76.35 236.008 76.35L228.568 76.38C228.528 76.82 228.508 77.18 228.508 77.46C228.508 79.2 228.918 80.61 229.738 81.69C230.558 82.77 231.708 83.31 233.188 83.31C233.788 83.31 234.298 83.23 234.718 83.07C235.158 82.91 235.648 82.66 236.188 82.32H236.218ZM231.868 72.75C231.008 72.75 230.298 73.04 229.738 73.62C229.178 74.18 228.808 74.97 228.628 75.99L234.328 75.87C234.328 74.85 234.108 74.08 233.668 73.56C233.228 73.02 232.628 72.75 231.868 72.75ZM241.124 74.25C241.124 74.95 241.354 75.51 241.814 75.93C242.274 76.33 242.944 76.76 243.824 77.22C244.524 77.58 245.064 77.89 245.444 78.15C245.844 78.41 246.184 78.75 246.464 79.17C246.744 79.59 246.884 80.1 246.884 80.7C246.884 81.72 246.504 82.58 245.744 83.28C244.984 83.98 243.954 84.33 242.654 84.33C241.594 84.33 240.634 84.03 239.774 83.43C239.654 83.35 239.594 83.23 239.594 83.07L239.534 80.73C239.534 80.67 239.584 80.64 239.684 80.64C239.804 80.62 239.874 80.64 239.894 80.7C240.274 81.7 240.764 82.46 241.364 82.98C241.984 83.5 242.694 83.76 243.494 83.76C244.154 83.76 244.654 83.6 244.994 83.28C245.334 82.96 245.484 82.49 245.444 81.87C245.424 81.11 245.184 80.53 244.724 80.13C244.284 79.71 243.614 79.28 242.714 78.84C242.054 78.52 241.524 78.23 241.124 77.97C240.744 77.71 240.414 77.37 240.134 76.95C239.874 76.53 239.744 76.01 239.744 75.39C239.744 74.31 240.144 73.49 240.944 72.93C241.764 72.35 242.724 72.06 243.824 72.06C244.624 72.06 245.354 72.21 246.014 72.51C246.134 72.55 246.204 72.6 246.224 72.66C246.264 72.7 246.284 72.76 246.284 72.84C246.284 73.24 246.274 73.55 246.254 73.77L246.224 75.03C246.224 75.07 246.164 75.09 246.044 75.09C245.924 75.09 245.864 75.07 245.864 75.03C245.864 74.61 245.704 74.22 245.384 73.86C245.064 73.48 244.664 73.18 244.184 72.96C243.704 72.74 243.224 72.63 242.744 72.63C242.244 72.63 241.844 72.77 241.544 73.05C241.264 73.31 241.124 73.71 241.124 74.25ZM251.485 74.25C251.485 74.95 251.715 75.51 252.175 75.93C252.635 76.33 253.305 76.76 254.185 77.22C254.885 77.58 255.425 77.89 255.805 78.15C256.205 78.41 256.545 78.75 256.825 79.17C257.105 79.59 257.245 80.1 257.245 80.7C257.245 81.72 256.865 82.58 256.105 83.28C255.345 83.98 254.315 84.33 253.015 84.33C251.955 84.33 250.995 84.03 250.135 83.43C250.015 83.35 249.955 83.23 249.955 83.07L249.895 80.73C249.895 80.67 249.945 80.64 250.045 80.64C250.165 80.62 250.235 80.64 250.255 80.7C250.635 81.7 251.125 82.46 251.725 82.98C252.345 83.5 253.055 83.76 253.855 83.76C254.515 83.76 255.015 83.6 255.355 83.28C255.695 82.96 255.845 82.49 255.805 81.87C255.785 81.11 255.545 80.53 255.085 80.13C254.645 79.71 253.975 79.28 253.075 78.84C252.415 78.52 251.885 78.23 251.485 77.97C251.105 77.71 250.775 77.37 250.495 76.95C250.235 76.53 250.105 76.01 250.105 75.39C250.105 74.31 250.505 73.49 251.305 72.93C252.125 72.35 253.085 72.06 254.185 72.06C254.985 72.06 255.715 72.21 256.375 72.51C256.495 72.55 256.565 72.6 256.585 72.66C256.625 72.7 256.645 72.76 256.645 72.84C256.645 73.24 256.635 73.55 256.615 73.77L256.585 75.03C256.585 75.07 256.525 75.09 256.405 75.09C256.285 75.09 256.225 75.07 256.225 75.03C256.225 74.61 256.065 74.22 255.745 73.86C255.425 73.48 255.025 73.18 254.545 72.96C254.065 72.74 253.585 72.63 253.105 72.63C252.605 72.63 252.205 72.77 251.905 73.05C251.625 73.31 251.485 73.71 251.485 74.25ZM268.561 62.22C269.581 62.22 270.411 62.38 271.051 62.7C271.711 63 272.041 63.37 272.041 63.81C272.041 64.11 271.931 64.35 271.711 64.53C271.511 64.69 271.271 64.77 270.991 64.77C270.751 64.77 270.541 64.71 270.361 64.59C270.181 64.47 269.991 64.27 269.791 63.99C269.491 63.57 269.161 63.26 268.801 63.06C268.461 62.84 268.031 62.73 267.511 62.73C266.351 62.73 265.431 63.4 264.751 64.74C264.071 66.08 263.731 68.11 263.731 70.83V72.75C264.651 72.73 265.931 72.63 267.571 72.45C267.631 72.45 267.681 72.52 267.721 72.66C267.761 72.8 267.781 72.97 267.781 73.17C267.781 73.33 267.751 73.5 267.691 73.68C267.631 73.84 267.561 73.91 267.481 73.89C266.321 73.61 265.071 73.45 263.731 73.41V81.57C263.731 82.19 263.801 82.64 263.941 82.92C264.081 83.2 264.351 83.39 264.751 83.49C265.151 83.59 265.791 83.64 266.671 83.64C266.731 83.64 266.761 83.7 266.761 83.82C266.761 83.94 266.731 84 266.671 84L264.751 83.97C264.331 83.95 263.691 83.94 262.831 83.94L261.151 83.97C260.871 83.99 260.471 84 259.951 84C259.891 84 259.861 83.94 259.861 83.82C259.861 83.7 259.891 83.64 259.951 83.64C260.551 83.64 260.991 83.59 261.271 83.49C261.551 83.37 261.741 83.17 261.841 82.89C261.961 82.61 262.021 82.17 262.021 81.57V74.82C262.021 74.3 261.971 73.94 261.871 73.74C261.771 73.52 261.571 73.38 261.271 73.32C260.991 73.24 260.511 73.2 259.831 73.2C259.771 73.2 259.741 73.14 259.741 73.02C259.741 72.88 259.771 72.81 259.831 72.81C260.651 72.81 261.201 72.72 261.481 72.54C261.781 72.34 261.941 71.98 261.961 71.46C262.061 68.22 262.651 65.87 263.731 64.41C264.831 62.95 266.441 62.22 268.561 62.22ZM283.142 82.29C283.222 82.29 283.272 82.34 283.292 82.44C283.332 82.52 283.312 82.58 283.232 82.62L279.722 84.27L279.602 84.3C279.402 84.3 279.212 84.07 279.032 83.61C278.852 83.15 278.762 82.55 278.762 81.81V81.69C277.982 82.57 277.202 83.22 276.422 83.64C275.642 84.04 274.832 84.24 273.992 84.24C272.992 84.24 272.212 83.93 271.652 83.31C271.092 82.67 270.812 81.75 270.812 80.55V75.96C270.812 75.18 270.742 74.62 270.602 74.28C270.462 73.92 270.232 73.74 269.912 73.74C269.632 73.74 269.292 73.84 268.892 74.04H268.862C268.782 74.04 268.722 73.99 268.682 73.89C268.642 73.77 268.662 73.7 268.742 73.68L272.072 72.18L272.192 72.15C272.252 72.15 272.312 72.18 272.372 72.24C272.452 72.28 272.492 72.33 272.492 72.39V79.56C272.492 81.88 273.332 83.04 275.012 83.04C275.652 83.04 276.302 82.88 276.962 82.56C277.622 82.22 278.222 81.76 278.762 81.18V75.96C278.762 75.16 278.692 74.59 278.552 74.25C278.432 73.91 278.202 73.74 277.862 73.74C277.582 73.74 277.242 73.84 276.842 74.04H276.812C276.732 74.04 276.672 73.99 276.632 73.89C276.612 73.77 276.642 73.7 276.722 73.68L280.052 72.18L280.142 72.15C280.202 72.15 280.262 72.18 280.322 72.24C280.402 72.28 280.442 72.33 280.442 72.39V80.79C280.442 81.47 280.522 81.96 280.682 82.26C280.842 82.56 281.112 82.71 281.492 82.71C281.832 82.71 282.362 82.57 283.082 82.29H283.142ZM284.927 84C284.867 84 284.837 83.94 284.837 83.82C284.837 83.7 284.867 83.64 284.927 83.64C285.467 83.64 285.867 83.59 286.127 83.49C286.387 83.37 286.567 83.17 286.667 82.89C286.767 82.59 286.817 82.15 286.817 81.57V66.06C286.817 65.34 286.747 64.82 286.607 64.5C286.467 64.18 286.217 64.02 285.857 64.02C285.557 64.02 285.097 64.16 284.477 64.44H284.417C284.357 64.44 284.307 64.39 284.267 64.29C284.247 64.19 284.267 64.13 284.327 64.11L288.167 62.28C288.207 62.26 288.257 62.25 288.317 62.25C288.357 62.25 288.407 62.28 288.467 62.34C288.547 62.38 288.587 62.43 288.587 62.49V81.57C288.587 82.15 288.627 82.58 288.707 82.86C288.807 83.14 288.987 83.34 289.247 83.46C289.507 83.58 289.907 83.64 290.447 83.64C290.507 83.64 290.537 83.7 290.537 83.82C290.537 83.94 290.507 84 290.447 84C290.007 84 289.647 83.99 289.367 83.97L287.687 83.94L286.067 83.97C285.787 83.99 285.407 84 284.927 84ZM311.623 64.92C312.883 64.92 313.943 65.01 314.803 65.19C315.663 65.37 316.523 65.68 317.383 66.12C317.523 66.2 317.603 66.27 317.623 66.33C317.643 66.39 317.673 66.54 317.713 66.78L318.073 70.35C318.073 70.41 318.013 70.45 317.893 70.47C317.793 70.47 317.733 70.44 317.713 70.38C316.793 67.04 314.733 65.37 311.533 65.37C309.853 65.37 308.373 65.74 307.093 66.48C305.813 67.22 304.823 68.28 304.123 69.66C303.423 71.02 303.073 72.61 303.073 74.43C303.073 76.17 303.453 77.77 304.213 79.23C304.993 80.67 306.033 81.81 307.333 82.65C308.653 83.49 310.083 83.91 311.623 83.91C313.263 83.91 314.593 83.51 315.613 82.71C316.633 81.91 317.413 80.69 317.953 79.05C317.953 79.01 318.003 78.99 318.103 78.99C318.243 78.99 318.313 79.02 318.313 79.08L318.013 82.38C317.993 82.62 317.963 82.77 317.923 82.83C317.883 82.89 317.803 82.96 317.683 83.04C316.643 83.54 315.663 83.89 314.743 84.09C313.843 84.29 312.803 84.39 311.623 84.39C309.523 84.39 307.643 83.98 305.983 83.16C304.343 82.32 303.063 81.15 302.143 79.65C301.223 78.15 300.763 76.43 300.763 74.49C300.763 72.61 301.233 70.95 302.173 69.51C303.113 68.05 304.403 66.92 306.043 66.12C307.703 65.32 309.563 64.92 311.623 64.92ZM332.709 82.38C332.789 82.38 332.839 82.43 332.859 82.53C332.879 82.61 332.849 82.67 332.769 82.71L329.679 84.18C329.599 84.22 329.519 84.24 329.439 84.24C329.179 84.24 328.949 84.07 328.749 83.73C328.549 83.37 328.419 82.89 328.359 82.29L326.799 83.31C326.299 83.63 325.859 83.86 325.479 84C325.099 84.14 324.699 84.21 324.279 84.21C323.539 84.21 322.959 84.02 322.539 83.64C322.139 83.24 321.939 82.74 321.939 82.14C321.939 81.54 322.179 81.02 322.659 80.58C323.139 80.14 323.929 79.72 325.029 79.32L328.329 78.09V76.05C328.329 73.81 327.699 72.69 326.439 72.69C325.759 72.69 325.239 72.92 324.879 73.38C324.539 73.82 324.309 74.33 324.189 74.91C324.129 75.27 324.019 75.57 323.859 75.81C323.699 76.03 323.429 76.14 323.049 76.14C322.729 76.14 322.479 76.05 322.299 75.87C322.139 75.69 322.059 75.48 322.059 75.24C322.059 74.76 322.369 74.28 322.989 73.8C323.609 73.32 324.349 72.92 325.209 72.6C326.069 72.28 326.839 72.12 327.519 72.12C328.339 72.12 328.959 72.38 329.379 72.9C329.799 73.42 330.009 74.17 330.009 75.15V80.76C330.009 81.46 330.099 81.97 330.279 82.29C330.459 82.61 330.759 82.77 331.179 82.77C331.559 82.77 332.049 82.64 332.649 82.38H332.709ZM328.329 81.87V81.72V78.51L325.539 79.59C324.979 79.81 324.569 80.07 324.309 80.37C324.069 80.65 323.949 80.99 323.949 81.39C323.949 81.87 324.099 82.28 324.399 82.62C324.719 82.94 325.129 83.1 325.629 83.1C326.029 83.1 326.509 82.94 327.069 82.62L328.329 81.87ZM336.257 74.25C336.257 74.95 336.487 75.51 336.947 75.93C337.407 76.33 338.077 76.76 338.957 77.22C339.657 77.58 340.197 77.89 340.577 78.15C340.977 78.41 341.317 78.75 341.597 79.17C341.877 79.59 342.017 80.1 342.017 80.7C342.017 81.72 341.637 82.58 340.877 83.28C340.117 83.98 339.087 84.33 337.787 84.33C336.727 84.33 335.767 84.03 334.907 83.43C334.787 83.35 334.727 83.23 334.727 83.07L334.667 80.73C334.667 80.67 334.717 80.64 334.817 80.64C334.937 80.62 335.007 80.64 335.027 80.7C335.407 81.7 335.897 82.46 336.497 82.98C337.117 83.5 337.827 83.76 338.627 83.76C339.287 83.76 339.787 83.6 340.127 83.28C340.467 82.96 340.617 82.49 340.577 81.87C340.557 81.11 340.317 80.53 339.857 80.13C339.417 79.71 338.747 79.28 337.847 78.84C337.187 78.52 336.657 78.23 336.257 77.97C335.877 77.71 335.547 77.37 335.267 76.95C335.007 76.53 334.877 76.01 334.877 75.39C334.877 74.31 335.277 73.49 336.077 72.93C336.897 72.35 337.857 72.06 338.957 72.06C339.757 72.06 340.487 72.21 341.147 72.51C341.267 72.55 341.337 72.6 341.357 72.66C341.397 72.7 341.417 72.76 341.417 72.84C341.417 73.24 341.407 73.55 341.387 73.77L341.357 75.03C341.357 75.07 341.297 75.09 341.177 75.09C341.057 75.09 340.997 75.07 340.997 75.03C340.997 74.61 340.837 74.22 340.517 73.86C340.197 73.48 339.797 73.18 339.317 72.96C338.837 72.74 338.357 72.63 337.877 72.63C337.377 72.63 336.977 72.77 336.677 73.05C336.397 73.31 336.257 73.71 336.257 74.25ZM354.534 82.32C354.594 82.32 354.644 82.36 354.684 82.44C354.744 82.5 354.754 82.56 354.714 82.62C353.394 83.78 351.934 84.36 350.334 84.36C349.174 84.36 348.184 84.09 347.364 83.55C346.544 83.01 345.914 82.3 345.474 81.42C345.054 80.54 344.844 79.6 344.844 78.6C344.844 77.42 345.124 76.34 345.684 75.36C346.244 74.36 347.004 73.58 347.964 73.02C348.944 72.44 350.014 72.15 351.174 72.15C352.294 72.15 353.154 72.45 353.754 73.05C354.354 73.65 354.654 74.49 354.654 75.57C354.654 75.85 354.624 76.05 354.564 76.17C354.524 76.29 354.444 76.35 354.324 76.35L346.884 76.38C346.844 76.82 346.824 77.18 346.824 77.46C346.824 79.2 347.234 80.61 348.054 81.69C348.874 82.77 350.024 83.31 351.504 83.31C352.104 83.31 352.614 83.23 353.034 83.07C353.474 82.91 353.964 82.66 354.504 82.32H354.534ZM350.184 72.75C349.324 72.75 348.614 73.04 348.054 73.62C347.494 74.18 347.124 74.97 346.944 75.99L352.644 75.87C352.644 74.85 352.424 74.08 351.984 73.56C351.544 73.02 350.944 72.75 350.184 72.75ZM359.44 74.25C359.44 74.95 359.67 75.51 360.13 75.93C360.59 76.33 361.26 76.76 362.14 77.22C362.84 77.58 363.38 77.89 363.76 78.15C364.16 78.41 364.5 78.75 364.78 79.17C365.06 79.59 365.2 80.1 365.2 80.7C365.2 81.72 364.82 82.58 364.06 83.28C363.3 83.98 362.27 84.33 360.97 84.33C359.91 84.33 358.95 84.03 358.09 83.43C357.97 83.35 357.91 83.23 357.91 83.07L357.85 80.73C357.85 80.67 357.9 80.64 358 80.64C358.12 80.62 358.19 80.64 358.21 80.7C358.59 81.7 359.08 82.46 359.68 82.98C360.3 83.5 361.01 83.76 361.81 83.76C362.47 83.76 362.97 83.6 363.31 83.28C363.65 82.96 363.8 82.49 363.76 81.87C363.74 81.11 363.5 80.53 363.04 80.13C362.6 79.71 361.93 79.28 361.03 78.84C360.37 78.52 359.84 78.23 359.44 77.97C359.06 77.71 358.73 77.37 358.45 76.95C358.19 76.53 358.06 76.01 358.06 75.39C358.06 74.31 358.46 73.49 359.26 72.93C360.08 72.35 361.04 72.06 362.14 72.06C362.94 72.06 363.67 72.21 364.33 72.51C364.45 72.55 364.52 72.6 364.54 72.66C364.58 72.7 364.6 72.76 364.6 72.84C364.6 73.24 364.59 73.55 364.57 73.77L364.54 75.03C364.54 75.07 364.48 75.09 364.36 75.09C364.24 75.09 364.18 75.07 364.18 75.03C364.18 74.61 364.02 74.22 363.7 73.86C363.38 73.48 362.98 73.18 362.5 72.96C362.02 72.74 361.54 72.63 361.06 72.63C360.56 72.63 360.16 72.77 359.86 73.05C359.58 73.31 359.44 73.71 359.44 74.25Z" fill="#1F2732"/>
<path d="M171.64 118V104.12H173.52V118H171.64ZM172.92 118V116.28H180.36V118H172.92ZM186.385 118.2C185.518 118.2 184.732 117.987 184.025 117.56C183.318 117.12 182.758 116.527 182.345 115.78C181.945 115.033 181.745 114.193 181.745 113.26C181.745 112.327 181.945 111.487 182.345 110.74C182.758 109.993 183.312 109.4 184.005 108.96C184.712 108.52 185.505 108.3 186.385 108.3C187.105 108.3 187.745 108.453 188.305 108.76C188.878 109.053 189.338 109.467 189.685 110C190.032 110.52 190.225 111.127 190.265 111.82V114.68C190.225 115.36 190.032 115.967 189.685 116.5C189.352 117.033 188.898 117.453 188.325 117.76C187.765 118.053 187.118 118.2 186.385 118.2ZM186.685 116.5C187.578 116.5 188.298 116.2 188.845 115.6C189.392 114.987 189.665 114.207 189.665 113.26C189.665 112.607 189.538 112.04 189.285 111.56C189.045 111.067 188.698 110.687 188.245 110.42C187.792 110.14 187.265 110 186.665 110C186.065 110 185.532 110.14 185.065 110.42C184.612 110.7 184.252 111.087 183.985 111.58C183.732 112.06 183.605 112.613 183.605 113.24C183.605 113.88 183.732 114.447 183.985 114.94C184.252 115.42 184.618 115.8 185.085 116.08C185.552 116.36 186.085 116.5 186.685 116.5ZM189.545 118V115.44L189.885 113.12L189.545 110.82V108.5H191.365V118H189.545ZM194.386 118V108.5H196.186V118H194.386ZM196.186 112.58L195.506 112.28C195.506 111.067 195.786 110.1 196.346 109.38C196.906 108.66 197.712 108.3 198.766 108.3C199.246 108.3 199.679 108.387 200.066 108.56C200.452 108.72 200.812 108.993 201.146 109.38L199.966 110.6C199.766 110.387 199.546 110.233 199.306 110.14C199.066 110.047 198.786 110 198.466 110C197.799 110 197.252 110.213 196.826 110.64C196.399 111.067 196.186 111.713 196.186 112.58ZM206.44 122.18C205.467 122.18 204.6 122 203.84 121.64C203.094 121.28 202.494 120.773 202.04 120.12L203.2 118.94C203.587 119.433 204.047 119.807 204.58 120.06C205.114 120.327 205.747 120.46 206.48 120.46C207.454 120.46 208.22 120.2 208.78 119.68C209.354 119.173 209.64 118.487 209.64 117.62V115.26L209.96 113.12L209.64 111V108.5H211.44V117.62C211.44 118.527 211.227 119.32 210.8 120C210.387 120.68 209.8 121.213 209.04 121.6C208.294 121.987 207.427 122.18 206.44 122.18ZM206.44 117.84C205.574 117.84 204.794 117.633 204.1 117.22C203.42 116.807 202.88 116.24 202.48 115.52C202.08 114.787 201.88 113.967 201.88 113.06C201.88 112.153 202.08 111.347 202.48 110.64C202.88 109.92 203.42 109.353 204.1 108.94C204.794 108.513 205.574 108.3 206.44 108.3C207.187 108.3 207.847 108.447 208.42 108.74C208.994 109.033 209.447 109.447 209.78 109.98C210.127 110.5 210.314 111.113 210.34 111.82V114.34C210.3 115.033 210.107 115.647 209.76 116.18C209.427 116.7 208.974 117.107 208.4 117.4C207.827 117.693 207.174 117.84 206.44 117.84ZM206.8 116.14C207.387 116.14 207.9 116.013 208.34 115.76C208.794 115.507 209.14 115.153 209.38 114.7C209.62 114.233 209.74 113.693 209.74 113.08C209.74 112.467 209.614 111.933 209.36 111.48C209.12 111.013 208.78 110.653 208.34 110.4C207.9 110.133 207.38 110 206.78 110C206.18 110 205.654 110.133 205.2 110.4C204.747 110.653 204.387 111.013 204.12 111.48C203.867 111.933 203.74 112.46 203.74 113.06C203.74 113.66 203.867 114.193 204.12 114.66C204.387 115.127 204.747 115.493 205.2 115.76C205.667 116.013 206.2 116.14 206.8 116.14ZM218.882 118.2C217.936 118.2 217.082 117.987 216.322 117.56C215.562 117.12 214.962 116.527 214.522 115.78C214.082 115.033 213.862 114.187 213.862 113.24C213.862 112.307 214.076 111.467 214.502 110.72C214.942 109.973 215.529 109.387 216.262 108.96C217.009 108.52 217.842 108.3 218.762 108.3C219.642 108.3 220.416 108.5 221.082 108.9C221.762 109.3 222.289 109.853 222.662 110.56C223.049 111.267 223.242 112.067 223.242 112.96C223.242 113.093 223.236 113.24 223.222 113.4C223.209 113.547 223.182 113.72 223.142 113.92H215.122V112.42H222.182L221.522 113C221.522 112.36 221.409 111.82 221.182 111.38C220.956 110.927 220.636 110.58 220.222 110.34C219.809 110.087 219.309 109.96 218.722 109.96C218.109 109.96 217.569 110.093 217.102 110.36C216.636 110.627 216.276 111 216.022 111.48C215.769 111.96 215.642 112.527 215.642 113.18C215.642 113.847 215.776 114.433 216.042 114.94C216.309 115.433 216.689 115.82 217.182 116.1C217.676 116.367 218.242 116.5 218.882 116.5C219.416 116.5 219.902 116.407 220.342 116.22C220.796 116.033 221.182 115.753 221.502 115.38L222.662 116.56C222.209 117.093 221.649 117.5 220.982 117.78C220.329 118.06 219.629 118.2 218.882 118.2ZM228.625 118.2C228.092 118.2 227.585 118.133 227.105 118C226.638 117.853 226.205 117.653 225.805 117.4C225.405 117.133 225.058 116.82 224.765 116.46L225.925 115.3C226.272 115.727 226.672 116.047 227.125 116.26C227.578 116.46 228.085 116.56 228.645 116.56C229.205 116.56 229.638 116.467 229.945 116.28C230.252 116.08 230.405 115.807 230.405 115.46C230.405 115.113 230.278 114.847 230.025 114.66C229.785 114.46 229.472 114.3 229.085 114.18C228.698 114.047 228.285 113.92 227.845 113.8C227.418 113.667 227.012 113.5 226.625 113.3C226.238 113.1 225.918 112.827 225.665 112.48C225.425 112.133 225.305 111.673 225.305 111.1C225.305 110.527 225.445 110.033 225.725 109.62C226.005 109.193 226.392 108.867 226.885 108.64C227.392 108.413 227.998 108.3 228.705 108.3C229.452 108.3 230.112 108.433 230.685 108.7C231.272 108.953 231.752 109.34 232.125 109.86L230.965 111.02C230.698 110.673 230.365 110.407 229.965 110.22C229.578 110.033 229.138 109.94 228.645 109.94C228.125 109.94 227.725 110.033 227.445 110.22C227.178 110.393 227.045 110.64 227.045 110.96C227.045 111.28 227.165 111.527 227.405 111.7C227.645 111.873 227.958 112.02 228.345 112.14C228.745 112.26 229.158 112.387 229.585 112.52C230.012 112.64 230.418 112.807 230.805 113.02C231.192 113.233 231.505 113.52 231.745 113.88C231.998 114.24 232.125 114.713 232.125 115.3C232.125 116.193 231.805 116.9 231.165 117.42C230.538 117.94 229.692 118.2 228.625 118.2ZM236 118V104.52H237.8V118H236ZM233.66 110.14V108.5H240.14V110.14H233.66ZM250.724 118L246.184 104.12H248.064L251.664 115.44H251.124L254.664 104.12H256.024L259.564 115.44H259.044L262.644 104.12H264.504L259.984 118H258.644L255.084 106.7H255.604L252.064 118H250.724ZM266.913 118V108.5H268.713V118H266.913ZM267.813 106.6C267.479 106.6 267.206 106.493 266.993 106.28C266.779 106.053 266.673 105.773 266.673 105.44C266.673 105.12 266.779 104.853 266.993 104.64C267.206 104.413 267.479 104.3 267.813 104.3C268.146 104.3 268.419 104.413 268.633 104.64C268.846 104.853 268.953 105.12 268.953 105.44C268.953 105.773 268.846 106.053 268.633 106.28C268.419 106.493 268.146 106.6 267.813 106.6ZM278.485 118V112.46C278.485 111.74 278.259 111.147 277.805 110.68C277.352 110.213 276.765 109.98 276.045 109.98C275.565 109.98 275.139 110.087 274.765 110.3C274.392 110.513 274.099 110.807 273.885 111.18C273.672 111.553 273.565 111.98 273.565 112.46L272.825 112.04C272.825 111.32 272.985 110.68 273.305 110.12C273.625 109.56 274.072 109.12 274.645 108.8C275.219 108.467 275.865 108.3 276.585 108.3C277.305 108.3 277.939 108.48 278.485 108.84C279.045 109.2 279.485 109.673 279.805 110.26C280.125 110.833 280.285 111.447 280.285 112.1V118H278.485ZM271.765 118V108.5H273.565V118H271.765ZM289.842 118V112.46C289.842 111.74 289.616 111.147 289.162 110.68C288.709 110.213 288.122 109.98 287.402 109.98C286.922 109.98 286.496 110.087 286.122 110.3C285.749 110.513 285.456 110.807 285.242 111.18C285.029 111.553 284.922 111.98 284.922 112.46L284.182 112.04C284.182 111.32 284.342 110.68 284.662 110.12C284.982 109.56 285.429 109.12 286.002 108.8C286.576 108.467 287.222 108.3 287.942 108.3C288.662 108.3 289.296 108.48 289.842 108.84C290.402 109.2 290.842 109.673 291.162 110.26C291.482 110.833 291.642 111.447 291.642 112.1V118H289.842ZM283.122 118V108.5H284.922V118H283.122ZM294.499 118V108.5H296.299V118H294.499ZM295.399 106.6C295.066 106.6 294.793 106.493 294.579 106.28C294.366 106.053 294.259 105.773 294.259 105.44C294.259 105.12 294.366 104.853 294.579 104.64C294.793 104.413 295.066 104.3 295.399 104.3C295.733 104.3 296.006 104.413 296.219 104.64C296.433 104.853 296.539 105.12 296.539 105.44C296.539 105.773 296.433 106.053 296.219 106.28C296.006 106.493 295.733 106.6 295.399 106.6ZM306.072 118V112.46C306.072 111.74 305.845 111.147 305.392 110.68C304.939 110.213 304.352 109.98 303.632 109.98C303.152 109.98 302.725 110.087 302.352 110.3C301.979 110.513 301.685 110.807 301.472 111.18C301.259 111.553 301.152 111.98 301.152 112.46L300.412 112.04C300.412 111.32 300.572 110.68 300.892 110.12C301.212 109.56 301.659 109.12 302.232 108.8C302.805 108.467 303.452 108.3 304.172 108.3C304.892 108.3 305.525 108.48 306.072 108.84C306.632 109.2 307.072 109.673 307.392 110.26C307.712 110.833 307.872 111.447 307.872 112.1V118H306.072ZM299.352 118V108.5H301.152V118H299.352ZM314.649 122.18C313.676 122.18 312.809 122 312.049 121.64C311.302 121.28 310.702 120.773 310.249 120.12L311.409 118.94C311.796 119.433 312.256 119.807 312.789 120.06C313.322 120.327 313.956 120.46 314.689 120.46C315.662 120.46 316.429 120.2 316.989 119.68C317.562 119.173 317.849 118.487 317.849 117.62V115.26L318.169 113.12L317.849 111V108.5H319.649V117.62C319.649 118.527 319.436 119.32 319.009 120C318.596 120.68 318.009 121.213 317.249 121.6C316.502 121.987 315.636 122.18 314.649 122.18ZM314.649 117.84C313.782 117.84 313.002 117.633 312.309 117.22C311.629 116.807 311.089 116.24 310.689 115.52C310.289 114.787 310.089 113.967 310.089 113.06C310.089 112.153 310.289 111.347 310.689 110.64C311.089 109.92 311.629 109.353 312.309 108.94C313.002 108.513 313.782 108.3 314.649 108.3C315.396 108.3 316.056 108.447 316.629 108.74C317.202 109.033 317.656 109.447 317.989 109.98C318.336 110.5 318.522 111.113 318.549 111.82V114.34C318.509 115.033 318.316 115.647 317.969 116.18C317.636 116.7 317.182 117.107 316.609 117.4C316.036 117.693 315.382 117.84 314.649 117.84ZM315.009 116.14C315.596 116.14 316.109 116.013 316.549 115.76C317.002 115.507 317.349 115.153 317.589 114.7C317.829 114.233 317.949 113.693 317.949 113.08C317.949 112.467 317.822 111.933 317.569 111.48C317.329 111.013 316.989 110.653 316.549 110.4C316.109 110.133 315.589 110 314.989 110C314.389 110 313.862 110.133 313.409 110.4C312.956 110.653 312.596 111.013 312.329 111.48C312.076 111.933 311.949 112.46 311.949 113.06C311.949 113.66 312.076 114.193 312.329 114.66C312.596 115.127 312.956 115.493 313.409 115.76C313.876 116.013 314.409 116.14 315.009 116.14ZM332.111 118L326.551 104.12H328.591L333.171 115.86H332.431L337.051 104.12H339.071L333.471 118H332.111ZM343.488 118.2C342.621 118.2 341.835 117.987 341.128 117.56C340.421 117.12 339.861 116.527 339.448 115.78C339.048 115.033 338.848 114.193 338.848 113.26C338.848 112.327 339.048 111.487 339.448 110.74C339.861 109.993 340.415 109.4 341.108 108.96C341.815 108.52 342.608 108.3 343.488 108.3C344.208 108.3 344.848 108.453 345.408 108.76C345.981 109.053 346.441 109.467 346.788 110C347.135 110.52 347.328 111.127 347.368 111.82V114.68C347.328 115.36 347.135 115.967 346.788 116.5C346.455 117.033 346.001 117.453 345.428 117.76C344.868 118.053 344.221 118.2 343.488 118.2ZM343.788 116.5C344.681 116.5 345.401 116.2 345.948 115.6C346.495 114.987 346.768 114.207 346.768 113.26C346.768 112.607 346.641 112.04 346.388 111.56C346.148 111.067 345.801 110.687 345.348 110.42C344.895 110.14 344.368 110 343.768 110C343.168 110 342.635 110.14 342.168 110.42C341.715 110.7 341.355 111.087 341.088 111.58C340.835 112.06 340.708 112.613 340.708 113.24C340.708 113.88 340.835 114.447 341.088 114.94C341.355 115.42 341.721 115.8 342.188 116.08C342.655 116.36 343.188 116.5 343.788 116.5ZM346.648 118V115.44L346.988 113.12L346.648 110.82V108.5H348.468V118H346.648ZM351.489 118V103.72H353.289V118H351.489ZM360.142 118.2C359.369 118.2 358.669 118.027 358.042 117.68C357.429 117.32 356.949 116.827 356.602 116.2C356.256 115.573 356.082 114.847 356.082 114.02V108.5H357.882V113.94C357.882 114.46 357.969 114.913 358.142 115.3C358.329 115.673 358.596 115.96 358.942 116.16C359.289 116.36 359.696 116.46 360.162 116.46C360.869 116.46 361.422 116.24 361.822 115.8C362.222 115.347 362.422 114.727 362.422 113.94V108.5H364.222V114.02C364.222 114.847 364.049 115.573 363.702 116.2C363.356 116.827 362.876 117.32 362.262 117.68C361.662 118.027 360.956 118.2 360.142 118.2ZM371.435 118.2C370.488 118.2 369.635 117.987 368.875 117.56C368.115 117.12 367.515 116.527 367.075 115.78C366.635 115.033 366.415 114.187 366.415 113.24C366.415 112.307 366.628 111.467 367.055 110.72C367.495 109.973 368.082 109.387 368.815 108.96C369.562 108.52 370.395 108.3 371.315 108.3C372.195 108.3 372.968 108.5 373.635 108.9C374.315 109.3 374.842 109.853 375.215 110.56C375.602 111.267 375.795 112.067 375.795 112.96C375.795 113.093 375.788 113.24 375.775 113.4C375.762 113.547 375.735 113.72 375.695 113.92H367.675V112.42H374.735L374.075 113C374.075 112.36 373.962 111.82 373.735 111.38C373.508 110.927 373.188 110.58 372.775 110.34C372.362 110.087 371.862 109.96 371.275 109.96C370.662 109.96 370.122 110.093 369.655 110.36C369.188 110.627 368.828 111 368.575 111.48C368.322 111.96 368.195 112.527 368.195 113.18C368.195 113.847 368.328 114.433 368.595 114.94C368.862 115.433 369.242 115.82 369.735 116.1C370.228 116.367 370.795 116.5 371.435 116.5C371.968 116.5 372.455 116.407 372.895 116.22C373.348 116.033 373.735 115.753 374.055 115.38L375.215 116.56C374.762 117.093 374.202 117.5 373.535 117.78C372.882 118.06 372.182 118.2 371.435 118.2Z" fill="#909090"/>
<rect x="31" y="31" width="118" height="118" stroke="#D1B06B" stroke-width="2"/>
<g clip-path="url(#clip0_2_269)">
<path d="M90 59L92.9187 67.9828H102.364L94.7225 73.5344L97.6412 82.5172L90 76.9656L82.3588 82.5172L85.2775 73.5344L77.6363 67.9828H87.0813L90 59Z" fill="#D1B06B"/>
</g>
<path d="M68.1575 113L74.4275 104.45L75.4475 103.91C75.2075 104.31 74.9175 104.66 74.5775 104.96C74.2375 105.26 73.8175 105.49 73.3175 105.65C72.8375 105.81 72.2475 105.89 71.5475 105.89C70.3475 105.89 69.2375 105.6 68.2175 105.02C67.2175 104.44 66.4175 103.64 65.8175 102.62C65.2175 101.58 64.9175 100.41 64.9175 99.11C64.9175 97.77 65.2475 96.56 65.9075 95.48C66.5675 94.38 67.4475 93.51 68.5475 92.87C69.6475 92.21 70.8675 91.88 72.2075 91.88C73.5675 91.88 74.7975 92.2 75.8975 92.84C76.9975 93.48 77.8675 94.34 78.5075 95.42C79.1475 96.48 79.4675 97.68 79.4675 99.02C79.4675 100.86 78.8275 102.69 77.5475 104.51L71.4275 113H68.1575ZM72.2075 103.67C73.0475 103.67 73.7975 103.47 74.4575 103.07C75.1375 102.65 75.6675 102.1 76.0475 101.42C76.4475 100.72 76.6475 99.95 76.6475 99.11C76.6475 98.23 76.4475 97.45 76.0475 96.77C75.6675 96.07 75.1375 95.52 74.4575 95.12C73.7975 94.72 73.0475 94.52 72.2075 94.52C71.3675 94.52 70.6075 94.72 69.9275 95.12C69.2675 95.52 68.7375 96.07 68.3375 96.77C67.9375 97.45 67.7375 98.23 67.7375 99.11C67.7375 99.97 67.9375 100.74 68.3375 101.42C68.7375 102.1 69.2775 102.65 69.9575 103.07C70.6375 103.47 71.3875 103.67 72.2075 103.67ZM88.8037 113.3C87.4237 113.3 86.2037 113.04 85.1437 112.52C84.1037 112 83.2937 111.28 82.7137 110.36C82.1337 109.44 81.8437 108.4 81.8437 107.24C81.8437 106.3 82.0237 105.44 82.3837 104.66C82.7437 103.88 83.2737 103.22 83.9737 102.68C84.6737 102.12 85.4937 101.72 86.4337 101.48L86.5237 102.29C85.7237 102.07 85.0437 101.72 84.4837 101.24C83.9237 100.74 83.4937 100.16 83.1937 99.5C82.9137 98.82 82.7737 98.1 82.7737 97.34C82.7737 96.26 83.0337 95.31 83.5537 94.49C84.0737 93.67 84.7837 93.03 85.6837 92.57C86.6037 92.09 87.6437 91.85 88.8037 91.85C89.9837 91.85 91.0237 92.09 91.9237 92.57C92.8237 93.03 93.5337 93.67 94.0537 94.49C94.5737 95.31 94.8337 96.26 94.8337 97.34C94.8337 98.1 94.6837 98.82 94.3837 99.5C94.1037 100.16 93.6837 100.74 93.1237 101.24C92.5837 101.72 91.9137 102.07 91.1137 102.29L91.1737 101.48C92.1337 101.72 92.9537 102.12 93.6337 102.68C94.3337 103.22 94.8637 103.88 95.2237 104.66C95.6037 105.44 95.7937 106.3 95.7937 107.24C95.7937 108.4 95.5037 109.44 94.9237 110.36C94.3437 111.28 93.5237 112 92.4637 112.52C91.4237 113.04 90.2037 113.3 88.8037 113.3ZM88.8037 110.75C89.6437 110.75 90.3737 110.59 90.9937 110.27C91.6337 109.93 92.1337 109.47 92.4937 108.89C92.8737 108.31 93.0637 107.64 93.0637 106.88C93.0637 106.14 92.8737 105.48 92.4937 104.9C92.1337 104.32 91.6337 103.87 90.9937 103.55C90.3737 103.21 89.6437 103.04 88.8037 103.04C87.9837 103.04 87.2537 103.21 86.6137 103.55C85.9737 103.87 85.4637 104.32 85.0837 104.9C84.7237 105.48 84.5437 106.14 84.5437 106.88C84.5437 107.64 84.7237 108.31 85.0837 108.89C85.4637 109.47 85.9737 109.93 86.6137 110.27C87.2537 110.59 87.9837 110.75 88.8037 110.75ZM88.8037 100.85C89.8037 100.85 90.6237 100.54 91.2637 99.92C91.9037 99.3 92.2237 98.5 92.2237 97.52C92.2237 96.56 91.9037 95.78 91.2637 95.18C90.6237 94.56 89.8037 94.25 88.8037 94.25C87.8237 94.25 87.0137 94.56 86.3737 95.18C85.7337 95.78 85.4137 96.56 85.4137 97.52C85.4137 98.5 85.7337 99.3 86.3737 99.92C87.0137 100.54 87.8237 100.85 88.8037 100.85ZM103.148 100.31C102.388 100.31 101.688 100.12 101.048 99.74C100.408 99.36 99.8979 98.85 99.5179 98.21C99.1379 97.57 98.9479 96.86 98.9479 96.08C98.9479 95.28 99.1279 94.57 99.4879 93.95C99.8679 93.33 100.378 92.83 101.018 92.45C101.658 92.07 102.368 91.88 103.148 91.88C103.948 91.88 104.668 92.07 105.308 92.45C105.948 92.83 106.458 93.33 106.838 93.95C107.218 94.57 107.408 95.28 107.408 96.08C107.408 96.86 107.218 97.57 106.838 98.21C106.458 98.85 105.948 99.36 105.308 99.74C104.688 100.12 103.968 100.31 103.148 100.31ZM103.148 98.18C103.748 98.18 104.238 97.99 104.618 97.61C104.998 97.21 105.188 96.7 105.188 96.08C105.188 95.46 104.988 94.96 104.588 94.58C104.208 94.2 103.728 94.01 103.148 94.01C102.568 94.01 102.088 94.2 101.708 94.58C101.348 94.96 101.168 95.46 101.168 96.08C101.168 96.7 101.348 97.21 101.708 97.61C102.088 97.99 102.568 98.18 103.148 98.18ZM111.518 113.3C110.738 113.3 110.028 113.11 109.388 112.73C108.748 112.35 108.238 111.85 107.858 111.23C107.478 110.59 107.288 109.87 107.288 109.07C107.288 108.29 107.478 107.59 107.858 106.97C108.238 106.33 108.748 105.82 109.388 105.44C110.028 105.06 110.738 104.87 111.518 104.87C112.298 104.87 113.008 105.06 113.648 105.44C114.308 105.82 114.828 106.33 115.208 106.97C115.588 107.59 115.778 108.29 115.778 109.07C115.778 109.87 115.588 110.59 115.208 111.23C114.828 111.85 114.318 112.35 113.678 112.73C113.038 113.11 112.318 113.3 111.518 113.3ZM111.518 111.17C112.118 111.17 112.608 110.98 112.988 110.6C113.368 110.2 113.558 109.69 113.558 109.07C113.558 108.47 113.358 107.98 112.958 107.6C112.578 107.2 112.098 107 111.518 107C110.938 107 110.458 107.2 110.078 107.6C109.698 107.98 109.508 108.47 109.508 109.07C109.508 109.69 109.698 110.2 110.078 110.6C110.458 110.98 110.938 111.17 111.518 111.17ZM99.3079 113L112.658 92.18H115.388L102.038 113H99.3079Z" fill="#1F2732"/>
<defs>
<clipPath id="clip0_2_269">
<rect width="26" height="24" fill="white" transform="translate(77 59)"/>
</clipPath>
</defs>
</svg>
