<svg width="433" height="180" viewBox="0 0 433 180" fill="none" xmlns="http://www.w3.org/2000/svg">
<path d="M0 0H433V180H0V0Z" fill="#FBFBFB"/>
<rect x="31" y="31" width="116" height="118" stroke="#D1B06B" stroke-width="2"/>
<path d="M59.3354 111L67.1354 91.83L69.9254 91.92L62.3054 111H59.3354ZM56.0654 92.7V90.18H69.9254V91.92L68.6954 92.7H56.0654ZM71.9941 109.29L79.6741 101.19C80.4541 100.39 81.0641 99.7 81.5041 99.12C81.9441 98.52 82.2541 97.97 82.4341 97.47C82.6341 96.97 82.7341 96.45 82.7341 95.91C82.7341 94.85 82.3941 94.02 81.7141 93.42C81.0341 92.82 80.1541 92.52 79.0741 92.52C78.0141 92.52 77.0841 92.78 76.2841 93.3C75.4841 93.8 74.7741 94.58 74.1541 95.64L72.1741 93.99C72.9941 92.63 73.9841 91.61 75.1441 90.93C76.3041 90.23 77.6441 89.88 79.1641 89.88C80.4441 89.88 81.5541 90.13 82.4941 90.63C83.4541 91.13 84.1941 91.83 84.7141 92.73C85.2341 93.63 85.4941 94.68 85.4941 95.88C85.4941 96.74 85.3841 97.51 85.1641 98.19C84.9641 98.87 84.5941 99.57 84.0541 100.29C83.5341 100.99 82.8041 101.83 81.8641 102.81L75.6541 109.2L71.9941 109.29ZM71.9941 111V109.29L74.3941 108.48H85.9741V111H71.9941ZM95.0446 111.3C93.6846 111.3 92.4446 111.05 91.3246 110.55C90.2246 110.03 89.2946 109.28 88.5346 108.3L90.4546 106.38C90.9146 107.08 91.5446 107.64 92.3446 108.06C93.1446 108.46 94.0346 108.66 95.0146 108.66C95.9346 108.66 96.7246 108.49 97.3846 108.15C98.0646 107.79 98.5946 107.29 98.9746 106.65C99.3746 106.01 99.5746 105.27 99.5746 104.43C99.5746 103.57 99.3746 102.83 98.9746 102.21C98.5946 101.57 98.0546 101.08 97.3546 100.74C96.6546 100.4 95.8246 100.23 94.8646 100.23C94.5046 100.23 94.1446 100.26 93.7846 100.32C93.4246 100.36 93.0746 100.43 92.7346 100.53L93.9346 98.91C94.3146 98.73 94.7246 98.59 95.1646 98.49C95.6046 98.39 96.0446 98.34 96.4846 98.34C97.6046 98.34 98.6046 98.6 99.4846 99.12C100.385 99.64 101.095 100.37 101.615 101.31C102.155 102.25 102.425 103.34 102.425 104.58C102.425 105.9 102.105 107.07 101.465 108.09C100.845 109.09 99.9846 109.88 98.8846 110.46C97.7846 111.02 96.5046 111.3 95.0446 111.3ZM92.7346 100.53V98.82L98.8246 91.89L102.185 91.86L95.9146 98.97L92.7346 100.53ZM89.5246 92.7V90.18H102.185V91.86L99.7246 92.7H89.5246ZM114.077 111.3C112.517 111.3 111.087 110.86 109.787 109.98C108.507 109.1 107.487 107.86 106.727 106.26C105.967 104.64 105.587 102.74 105.587 100.56C105.587 98.38 105.957 96.49 106.697 94.89C107.457 93.29 108.477 92.06 109.757 91.2C111.037 90.32 112.447 89.88 113.987 89.88C115.567 89.88 116.997 90.32 118.277 91.2C119.557 92.06 120.567 93.29 121.307 94.89C122.067 96.49 122.447 98.39 122.447 100.59C122.447 102.77 122.067 104.67 121.307 106.29C120.567 107.89 119.557 109.13 118.277 110.01C117.017 110.87 115.617 111.3 114.077 111.3ZM114.017 108.63C115.117 108.63 116.077 108.33 116.897 107.73C117.737 107.11 118.397 106.2 118.877 105C119.357 103.8 119.597 102.32 119.597 100.56C119.597 98.8 119.357 97.33 118.877 96.15C118.397 94.95 117.737 94.05 116.897 93.45C116.057 92.83 115.087 92.52 113.987 92.52C112.907 92.52 111.947 92.83 111.107 93.45C110.267 94.05 109.607 94.95 109.127 96.15C108.667 97.33 108.437 98.8 108.437 100.56C108.437 102.32 108.667 103.8 109.127 105C109.607 106.2 110.267 107.11 111.107 107.73C111.947 108.33 112.917 108.63 114.017 108.63Z" fill="#1F2732"/>
<g clip-path="url(#clip0_2_284)">
<path d="M89 81C89.3397 80.9996 89.6713 80.8985 89.9519 80.7099C94.1079 77.9312 95.9074 76.026 96.9 74.8349C99.0153 72.2958 100.028 69.6891 99.9994 66.8661C99.9661 63.6312 97.331 61 94.1253 61C91.7943 61 90.1798 62.2932 89.2396 63.3703C89.2098 63.4041 89.173 63.4312 89.1316 63.4497C89.0903 63.4683 89.0454 63.4779 89 63.4779C88.9546 63.4779 88.9097 63.4683 88.8684 63.4497C88.827 63.4312 88.7902 63.4041 88.7604 63.3703C87.8202 62.2922 86.2057 61 83.8747 61C80.669 61 78.0339 63.6313 78.0006 66.8667C77.972 69.6901 78.9858 72.2969 81.1 74.8354C82.0926 76.0266 83.8922 77.9318 88.0481 80.7104C88.3287 80.8988 88.6604 80.9997 89 81Z" fill="#D1B06B"/>
</g>
<path d="M169.64 105V91.12H170.96L171.52 93.3V105H169.64ZM179.24 105L170.72 93.62L170.96 91.12L179.5 102.48L179.24 105ZM179.24 105L178.68 102.94V91.12H180.56V105H179.24ZM187.739 105.2C186.966 105.2 186.266 105.027 185.639 104.68C185.026 104.32 184.546 103.827 184.199 103.2C183.853 102.573 183.679 101.847 183.679 101.02V95.5H185.479V100.94C185.479 101.46 185.566 101.913 185.739 102.3C185.926 102.673 186.193 102.96 186.539 103.16C186.886 103.36 187.293 103.46 187.759 103.46C188.466 103.46 189.019 103.24 189.419 102.8C189.819 102.347 190.019 101.727 190.019 100.94V95.5H191.819V101.02C191.819 101.847 191.646 102.573 191.299 103.2C190.953 103.827 190.473 104.32 189.859 104.68C189.259 105.027 188.553 105.2 187.739 105.2ZM194.632 105V95.5H196.432V105H194.632ZM201.052 105V99.26C201.052 98.5533 200.832 98 200.392 97.6C199.965 97.1867 199.425 96.98 198.772 96.98C198.332 96.98 197.938 97.0733 197.592 97.26C197.245 97.4467 196.965 97.7067 196.752 98.04C196.538 98.3733 196.432 98.7733 196.432 99.24L195.692 98.88C195.692 98.16 195.845 97.5333 196.152 97C196.472 96.4667 196.905 96.0533 197.452 95.76C197.998 95.4533 198.612 95.3 199.292 95.3C199.958 95.3 200.558 95.4467 201.092 95.74C201.638 96.0333 202.065 96.4467 202.372 96.98C202.692 97.5133 202.852 98.1467 202.852 98.88V105H201.052ZM207.472 105V99.26C207.472 98.5533 207.252 98 206.812 97.6C206.385 97.1867 205.852 96.98 205.212 96.98C204.772 96.98 204.372 97.0733 204.012 97.26C203.665 97.4467 203.385 97.7067 203.172 98.04C202.958 98.3733 202.852 98.7733 202.852 99.24L201.832 98.88C201.872 98.1467 202.065 97.52 202.412 97C202.772 96.4667 203.232 96.0533 203.792 95.76C204.352 95.4533 204.965 95.3 205.632 95.3C206.325 95.3 206.945 95.4467 207.492 95.74C208.038 96.0333 208.472 96.4467 208.792 96.98C209.125 97.5133 209.292 98.1533 209.292 98.9V105H207.472ZM217.141 105.2C216.421 105.2 215.768 105.053 215.181 104.76C214.608 104.453 214.148 104.033 213.801 103.5C213.454 102.967 213.261 102.36 213.221 101.68V98.82C213.261 98.1267 213.454 97.52 213.801 97C214.161 96.4667 214.628 96.0533 215.201 95.76C215.788 95.4533 216.434 95.3 217.141 95.3C218.008 95.3 218.788 95.52 219.481 95.96C220.188 96.4 220.741 96.9933 221.141 97.74C221.541 98.4867 221.741 99.3267 221.741 100.26C221.741 101.193 221.541 102.033 221.141 102.78C220.741 103.527 220.188 104.12 219.481 104.56C218.788 104.987 218.008 105.2 217.141 105.2ZM216.841 103.5C217.441 103.5 217.968 103.36 218.421 103.08C218.874 102.8 219.234 102.42 219.501 101.94C219.768 101.447 219.901 100.88 219.901 100.24C219.901 99.6133 219.768 99.0533 219.501 98.56C219.234 98.0667 218.874 97.6867 218.421 97.42C217.968 97.14 217.448 97 216.861 97C216.261 97 215.734 97.14 215.281 97.42C214.828 97.6867 214.474 98.0667 214.221 98.56C213.968 99.0533 213.841 99.62 213.841 100.26C213.841 100.887 213.961 101.447 214.201 101.94C214.454 102.42 214.808 102.8 215.261 103.08C215.728 103.36 216.254 103.5 216.841 103.5ZM212.141 105V90.72H213.941V97.82L213.601 100.12L213.941 102.44V105H212.141ZM228.582 105.2C227.635 105.2 226.782 104.987 226.022 104.56C225.262 104.12 224.662 103.527 224.222 102.78C223.782 102.033 223.562 101.187 223.562 100.24C223.562 99.3067 223.775 98.4667 224.202 97.72C224.642 96.9733 225.228 96.3867 225.962 95.96C226.708 95.52 227.542 95.3 228.462 95.3C229.342 95.3 230.115 95.5 230.782 95.9C231.462 96.3 231.988 96.8533 232.362 97.56C232.748 98.2667 232.942 99.0667 232.942 99.96C232.942 100.093 232.935 100.24 232.922 100.4C232.908 100.547 232.882 100.72 232.842 100.92H224.822V99.42H231.882L231.222 100C231.222 99.36 231.108 98.82 230.882 98.38C230.655 97.9267 230.335 97.58 229.922 97.34C229.508 97.0867 229.008 96.96 228.422 96.96C227.808 96.96 227.268 97.0933 226.802 97.36C226.335 97.6267 225.975 98 225.722 98.48C225.468 98.96 225.342 99.5267 225.342 100.18C225.342 100.847 225.475 101.433 225.742 101.94C226.008 102.433 226.388 102.82 226.882 103.1C227.375 103.367 227.942 103.5 228.582 103.5C229.115 103.5 229.602 103.407 230.042 103.22C230.495 103.033 230.882 102.753 231.202 102.38L232.362 103.56C231.908 104.093 231.348 104.5 230.682 104.78C230.028 105.06 229.328 105.2 228.582 105.2ZM235.304 105V95.5H237.104V105H235.304ZM237.104 99.58L236.424 99.28C236.424 98.0667 236.704 97.1 237.264 96.38C237.824 95.66 238.631 95.3 239.684 95.3C240.164 95.3 240.598 95.3867 240.984 95.56C241.371 95.72 241.731 95.9933 242.064 96.38L240.884 97.6C240.684 97.3867 240.464 97.2333 240.224 97.14C239.984 97.0467 239.704 97 239.384 97C238.718 97 238.171 97.2133 237.744 97.64C237.318 98.0667 237.104 98.7133 237.104 99.58ZM255.283 105.2C254.297 105.2 253.377 105.02 252.523 104.66C251.67 104.287 250.923 103.773 250.283 103.12C249.643 102.453 249.143 101.687 248.783 100.82C248.437 99.9533 248.263 99.0267 248.263 98.04C248.263 97.04 248.437 96.1133 248.783 95.26C249.143 94.3933 249.637 93.6333 250.263 92.98C250.903 92.3267 251.643 91.82 252.483 91.46C253.337 91.1 254.257 90.92 255.243 90.92C256.23 90.92 257.143 91.1 257.983 91.46C258.837 91.82 259.583 92.3267 260.223 92.98C260.863 93.6333 261.363 94.3933 261.723 95.26C262.083 96.1267 262.263 97.06 262.263 98.06C262.263 99.0467 262.083 99.9733 261.723 100.84C261.363 101.707 260.863 102.467 260.223 103.12C259.597 103.773 258.857 104.287 258.003 104.66C257.163 105.02 256.257 105.2 255.283 105.2ZM255.243 103.4C256.243 103.4 257.117 103.173 257.863 102.72C258.623 102.253 259.223 101.62 259.663 100.82C260.103 100.007 260.323 99.08 260.323 98.04C260.323 97.2667 260.197 96.56 259.943 95.92C259.69 95.2667 259.337 94.7 258.883 94.22C258.43 93.74 257.897 93.3733 257.283 93.12C256.67 92.8533 255.99 92.72 255.243 92.72C254.257 92.72 253.383 92.9467 252.623 93.4C251.877 93.8533 251.283 94.48 250.843 95.28C250.417 96.08 250.203 97 250.203 98.04C250.203 98.8133 250.323 99.5333 250.563 100.2C250.817 100.853 251.163 101.42 251.603 101.9C252.057 102.367 252.59 102.733 253.203 103C253.83 103.267 254.51 103.4 255.243 103.4ZM266.282 105V94.08C266.282 93.3733 266.436 92.76 266.742 92.24C267.049 91.7067 267.469 91.2867 268.002 90.98C268.549 90.6733 269.182 90.52 269.902 90.52C270.449 90.52 270.922 90.6133 271.322 90.8C271.722 90.9867 272.089 91.26 272.422 91.62L271.242 92.78C271.069 92.5933 270.876 92.4533 270.662 92.36C270.449 92.2533 270.189 92.2 269.882 92.2C269.309 92.2 268.862 92.3667 268.542 92.7C268.236 93.0333 268.082 93.4933 268.082 94.08V105H266.282ZM263.942 97.14V95.5H271.102V97.14H263.942ZM284.491 105.2C283.491 105.2 282.564 105.02 281.711 104.66C280.857 104.287 280.111 103.773 279.471 103.12C278.844 102.467 278.357 101.707 278.011 100.84C277.664 99.9733 277.491 99.0467 277.491 98.06C277.491 97.06 277.664 96.1267 278.011 95.26C278.357 94.3933 278.844 93.64 279.471 93C280.111 92.3467 280.851 91.84 281.691 91.48C282.544 91.1067 283.471 90.92 284.471 90.92C285.564 90.92 286.524 91.1067 287.351 91.48C288.177 91.8533 288.911 92.36 289.551 93L288.251 94.3C287.811 93.8067 287.271 93.42 286.631 93.14C286.004 92.86 285.284 92.72 284.471 92.72C283.737 92.72 283.064 92.8533 282.451 93.12C281.837 93.3733 281.304 93.74 280.851 94.22C280.397 94.7 280.044 95.2667 279.791 95.92C279.551 96.5733 279.431 97.2867 279.431 98.06C279.431 98.8333 279.551 99.5467 279.791 100.2C280.044 100.853 280.397 101.42 280.851 101.9C281.304 102.38 281.837 102.753 282.451 103.02C283.064 103.273 283.737 103.4 284.471 103.4C285.337 103.4 286.091 103.26 286.731 102.98C287.371 102.687 287.911 102.293 288.351 101.8L289.651 103.08C289.011 103.747 288.257 104.267 287.391 104.64C286.537 105.013 285.571 105.2 284.491 105.2ZM292.04 105V90.72H293.84V105H292.04ZM296.894 105V95.5H298.694V105H296.894ZM297.794 93.6C297.461 93.6 297.187 93.4933 296.974 93.28C296.761 93.0533 296.654 92.7733 296.654 92.44C296.654 92.12 296.761 91.8533 296.974 91.64C297.187 91.4133 297.461 91.3 297.794 91.3C298.127 91.3 298.401 91.4133 298.614 91.64C298.827 91.8533 298.934 92.12 298.934 92.44C298.934 92.7733 298.827 93.0533 298.614 93.28C298.401 93.4933 298.127 93.6 297.794 93.6ZM306.147 105.2C305.2 105.2 304.347 104.987 303.587 104.56C302.827 104.12 302.227 103.527 301.787 102.78C301.347 102.033 301.127 101.187 301.127 100.24C301.127 99.3067 301.34 98.4667 301.767 97.72C302.207 96.9733 302.793 96.3867 303.527 95.96C304.273 95.52 305.107 95.3 306.027 95.3C306.907 95.3 307.68 95.5 308.347 95.9C309.027 96.3 309.553 96.8533 309.927 97.56C310.313 98.2667 310.507 99.0667 310.507 99.96C310.507 100.093 310.5 100.24 310.487 100.4C310.473 100.547 310.447 100.72 310.407 100.92H302.387V99.42H309.447L308.787 100C308.787 99.36 308.673 98.82 308.447 98.38C308.22 97.9267 307.9 97.58 307.487 97.34C307.073 97.0867 306.573 96.96 305.987 96.96C305.373 96.96 304.833 97.0933 304.367 97.36C303.9 97.6267 303.54 98 303.287 98.48C303.033 98.96 302.907 99.5267 302.907 100.18C302.907 100.847 303.04 101.433 303.307 101.94C303.573 102.433 303.953 102.82 304.447 103.1C304.94 103.367 305.507 103.5 306.147 103.5C306.68 103.5 307.167 103.407 307.607 103.22C308.06 103.033 308.447 102.753 308.767 102.38L309.927 103.56C309.473 104.093 308.913 104.5 308.247 104.78C307.593 105.06 306.893 105.2 306.147 105.2ZM319.589 105V99.46C319.589 98.74 319.363 98.1467 318.909 97.68C318.456 97.2133 317.869 96.98 317.149 96.98C316.669 96.98 316.243 97.0867 315.869 97.3C315.496 97.5133 315.203 97.8067 314.989 98.18C314.776 98.5533 314.669 98.98 314.669 99.46L313.929 99.04C313.929 98.32 314.089 97.68 314.409 97.12C314.729 96.56 315.176 96.12 315.749 95.8C316.323 95.4667 316.969 95.3 317.689 95.3C318.409 95.3 319.043 95.48 319.589 95.84C320.149 96.2 320.589 96.6733 320.909 97.26C321.229 97.8333 321.389 98.4467 321.389 99.1V105H319.589ZM312.869 105V95.5H314.669V105H312.869ZM325.569 105V91.52H327.369V105H325.569ZM323.229 97.14V95.5H329.709V97.14H323.229ZM334.697 105.2C334.164 105.2 333.657 105.133 333.177 105C332.71 104.853 332.277 104.653 331.877 104.4C331.477 104.133 331.13 103.82 330.837 103.46L331.997 102.3C332.344 102.727 332.744 103.047 333.197 103.26C333.65 103.46 334.157 103.56 334.717 103.56C335.277 103.56 335.71 103.467 336.017 103.28C336.324 103.08 336.477 102.807 336.477 102.46C336.477 102.113 336.35 101.847 336.097 101.66C335.857 101.46 335.544 101.3 335.157 101.18C334.77 101.047 334.357 100.92 333.917 100.8C333.49 100.667 333.084 100.5 332.697 100.3C332.31 100.1 331.99 99.8267 331.737 99.48C331.497 99.1333 331.377 98.6733 331.377 98.1C331.377 97.5267 331.517 97.0333 331.797 96.62C332.077 96.1933 332.464 95.8667 332.957 95.64C333.464 95.4133 334.07 95.3 334.777 95.3C335.524 95.3 336.184 95.4333 336.757 95.7C337.344 95.9533 337.824 96.34 338.197 96.86L337.037 98.02C336.77 97.6733 336.437 97.4067 336.037 97.22C335.65 97.0333 335.21 96.94 334.717 96.94C334.197 96.94 333.797 97.0333 333.517 97.22C333.25 97.3933 333.117 97.64 333.117 97.96C333.117 98.28 333.237 98.5267 333.477 98.7C333.717 98.8733 334.03 99.02 334.417 99.14C334.817 99.26 335.23 99.3867 335.657 99.52C336.084 99.64 336.49 99.8067 336.877 100.02C337.264 100.233 337.577 100.52 337.817 100.88C338.07 101.24 338.197 101.713 338.197 102.3C338.197 103.193 337.877 103.9 337.237 104.42C336.61 104.94 335.764 105.2 334.697 105.2ZM173.18 137L168.64 123.12H170.52L174.12 134.44H173.58L177.12 123.12H178.48L182.02 134.44H181.5L185.1 123.12H186.96L182.44 137H181.1L177.54 125.7H178.06L174.52 137H173.18ZM192.284 137.2C191.337 137.2 190.484 136.987 189.724 136.56C188.964 136.12 188.364 135.527 187.924 134.78C187.484 134.033 187.264 133.187 187.264 132.24C187.264 131.307 187.477 130.467 187.904 129.72C188.344 128.973 188.931 128.387 189.664 127.96C190.411 127.52 191.244 127.3 192.164 127.3C193.044 127.3 193.817 127.5 194.484 127.9C195.164 128.3 195.691 128.853 196.064 129.56C196.451 130.267 196.644 131.067 196.644 131.96C196.644 132.093 196.637 132.24 196.624 132.4C196.611 132.547 196.584 132.72 196.544 132.92H188.524V131.42H195.584L194.924 132C194.924 131.36 194.811 130.82 194.584 130.38C194.357 129.927 194.037 129.58 193.624 129.34C193.211 129.087 192.711 128.96 192.124 128.96C191.511 128.96 190.971 129.093 190.504 129.36C190.037 129.627 189.677 130 189.424 130.48C189.171 130.96 189.044 131.527 189.044 132.18C189.044 132.847 189.177 133.433 189.444 133.94C189.711 134.433 190.091 134.82 190.584 135.1C191.077 135.367 191.644 135.5 192.284 135.5C192.817 135.5 193.304 135.407 193.744 135.22C194.197 135.033 194.584 134.753 194.904 134.38L196.064 135.56C195.611 136.093 195.051 136.5 194.384 136.78C193.731 137.06 193.031 137.2 192.284 137.2ZM199.487 127.6L199.067 122.72H201.047L200.627 127.6H199.487ZM207.354 137L202.994 127.5H204.994L208.494 135.52H207.334L210.854 127.5H212.774L208.414 137H207.354ZM218.738 137.2C217.791 137.2 216.938 136.987 216.178 136.56C215.418 136.12 214.818 135.527 214.378 134.78C213.938 134.033 213.718 133.187 213.718 132.24C213.718 131.307 213.931 130.467 214.358 129.72C214.798 128.973 215.385 128.387 216.118 127.96C216.865 127.52 217.698 127.3 218.618 127.3C219.498 127.3 220.271 127.5 220.938 127.9C221.618 128.3 222.145 128.853 222.518 129.56C222.905 130.267 223.098 131.067 223.098 131.96C223.098 132.093 223.091 132.24 223.078 132.4C223.065 132.547 223.038 132.72 222.998 132.92H214.978V131.42H222.038L221.378 132C221.378 131.36 221.265 130.82 221.038 130.38C220.811 129.927 220.491 129.58 220.078 129.34C219.665 129.087 219.165 128.96 218.578 128.96C217.965 128.96 217.425 129.093 216.958 129.36C216.491 129.627 216.131 130 215.878 130.48C215.625 130.96 215.498 131.527 215.498 132.18C215.498 132.847 215.631 133.433 215.898 133.94C216.165 134.433 216.545 134.82 217.038 135.1C217.531 135.367 218.098 135.5 218.738 135.5C219.271 135.5 219.758 135.407 220.198 135.22C220.651 135.033 221.038 134.753 221.358 134.38L222.518 135.56C222.065 136.093 221.505 136.5 220.838 136.78C220.185 137.06 219.485 137.2 218.738 137.2Z" fill="#909090"/>
<path d="M173.67 49.79C172.41 49.79 171.46 50.11 170.82 50.75C170.2 51.39 169.75 52.48 169.47 54.02C169.47 54.06 169.41 54.08 169.29 54.08C169.19 54.08 169.14 54.06 169.14 54.02C169.22 53.3 169.31 52.36 169.41 51.2C169.51 50.04 169.56 49.17 169.56 48.59C169.56 48.49 169.61 48.44 169.71 48.44C169.83 48.44 169.89 48.49 169.89 48.59C169.89 49.03 170.43 49.25 171.51 49.25C173.21 49.31 175.22 49.34 177.54 49.34C178.72 49.34 179.97 49.32 181.29 49.28L183.33 49.25C184.05 49.25 184.58 49.2 184.92 49.1C185.28 49 185.51 48.8 185.61 48.5C185.63 48.42 185.69 48.38 185.79 48.38C185.89 48.38 185.94 48.42 185.94 48.5C185.88 49.08 185.82 49.96 185.76 51.14C185.7 52.32 185.67 53.28 185.67 54.02C185.67 54.06 185.61 54.08 185.49 54.08C185.37 54.08 185.31 54.06 185.31 54.02C185.25 52.46 184.93 51.37 184.35 50.75C183.77 50.11 182.81 49.79 181.47 49.79C180.57 49.79 179.93 49.83 179.55 49.91C179.17 49.99 178.91 50.16 178.77 50.42C178.63 50.68 178.56 51.12 178.56 51.74V65.57C178.56 66.19 178.63 66.64 178.77 66.92C178.91 67.2 179.18 67.39 179.58 67.49C179.98 67.59 180.61 67.64 181.47 67.64C181.53 67.64 181.56 67.7 181.56 67.82C181.56 67.94 181.53 68 181.47 68C180.81 68 180.28 67.99 179.88 67.97L177.54 67.94L175.29 67.97C174.89 67.99 174.34 68 173.64 68C173.6 68 173.58 67.94 173.58 67.82C173.58 67.7 173.6 67.64 173.64 67.64C174.5 67.64 175.13 67.59 175.53 67.49C175.93 67.39 176.2 67.2 176.34 66.92C176.5 66.62 176.58 66.17 176.58 65.57V51.68C176.58 51.06 176.51 50.63 176.37 50.39C176.23 50.13 175.97 49.97 175.59 49.91C175.21 49.83 174.57 49.79 173.67 49.79ZM193.203 56.15C193.643 56.15 194.063 56.27 194.463 56.51C194.863 56.75 195.063 57.04 195.063 57.38C195.063 57.64 194.973 57.86 194.793 58.04C194.633 58.22 194.393 58.31 194.073 58.31C193.893 58.31 193.733 58.28 193.593 58.22C193.473 58.14 193.323 58.03 193.143 57.89C192.963 57.73 192.793 57.61 192.633 57.53C192.473 57.45 192.283 57.41 192.063 57.41C191.803 57.41 191.523 57.52 191.223 57.74C190.943 57.96 190.493 58.43 189.873 59.15V65.57C189.873 66.17 189.943 66.61 190.083 66.89C190.243 67.17 190.523 67.37 190.923 67.49C191.323 67.59 191.943 67.64 192.783 67.64C192.863 67.64 192.903 67.7 192.903 67.82C192.903 67.94 192.863 68 192.783 68C192.143 68 191.633 67.99 191.253 67.97L189.033 67.94L187.383 67.97C187.123 67.99 186.763 68 186.303 68C186.243 68 186.213 67.94 186.213 67.82C186.213 67.7 186.243 67.64 186.303 67.64C186.843 67.64 187.243 67.59 187.503 67.49C187.763 67.37 187.933 67.17 188.013 66.89C188.113 66.61 188.163 66.17 188.163 65.57V59.63C188.163 58.95 188.083 58.46 187.923 58.16C187.763 57.86 187.493 57.71 187.113 57.71C186.793 57.71 186.253 57.86 185.493 58.16H185.433C185.353 58.16 185.293 58.12 185.253 58.04C185.233 57.94 185.263 57.87 185.343 57.83L188.823 56.18L189.003 56.15C189.183 56.15 189.373 56.38 189.573 56.84C189.773 57.3 189.873 57.89 189.873 58.61V58.64C190.693 57.68 191.343 57.03 191.823 56.69C192.303 56.33 192.763 56.15 193.203 56.15ZM210.89 66.29C210.97 66.29 211.02 66.34 211.04 66.44C211.08 66.52 211.06 66.58 210.98 66.62L207.47 68.27L207.35 68.3C207.15 68.3 206.96 68.07 206.78 67.61C206.6 67.15 206.51 66.55 206.51 65.81V65.69C205.73 66.57 204.95 67.22 204.17 67.64C203.39 68.04 202.58 68.24 201.74 68.24C200.74 68.24 199.96 67.93 199.4 67.31C198.84 66.67 198.56 65.75 198.56 64.55V59.96C198.56 59.18 198.49 58.62 198.35 58.28C198.21 57.92 197.98 57.74 197.66 57.74C197.38 57.74 197.04 57.84 196.64 58.04H196.61C196.53 58.04 196.47 57.99 196.43 57.89C196.39 57.77 196.41 57.7 196.49 57.68L199.82 56.18L199.94 56.15C200 56.15 200.06 56.18 200.12 56.24C200.2 56.28 200.24 56.33 200.24 56.39V63.56C200.24 65.88 201.08 67.04 202.76 67.04C203.4 67.04 204.05 66.88 204.71 66.56C205.37 66.22 205.97 65.76 206.51 65.18V59.96C206.51 59.16 206.44 58.59 206.3 58.25C206.18 57.91 205.95 57.74 205.61 57.74C205.33 57.74 204.99 57.84 204.59 58.04H204.56C204.48 58.04 204.42 57.99 204.38 57.89C204.36 57.77 204.39 57.7 204.47 57.68L207.8 56.18L207.89 56.15C207.95 56.15 208.01 56.18 208.07 56.24C208.15 56.28 208.19 56.33 208.19 56.39V64.79C208.19 65.47 208.27 65.96 208.43 66.26C208.59 66.56 208.86 66.71 209.24 66.71C209.58 66.71 210.11 66.57 210.83 66.29H210.89ZM214.505 58.25C214.505 58.95 214.735 59.51 215.195 59.93C215.655 60.33 216.325 60.76 217.205 61.22C217.905 61.58 218.445 61.89 218.825 62.15C219.225 62.41 219.565 62.75 219.845 63.17C220.125 63.59 220.265 64.1 220.265 64.7C220.265 65.72 219.885 66.58 219.125 67.28C218.365 67.98 217.335 68.33 216.035 68.33C214.975 68.33 214.015 68.03 213.155 67.43C213.035 67.35 212.975 67.23 212.975 67.07L212.915 64.73C212.915 64.67 212.965 64.64 213.065 64.64C213.185 64.62 213.255 64.64 213.275 64.7C213.655 65.7 214.145 66.46 214.745 66.98C215.365 67.5 216.075 67.76 216.875 67.76C217.535 67.76 218.035 67.6 218.375 67.28C218.715 66.96 218.865 66.49 218.825 65.87C218.805 65.11 218.565 64.53 218.105 64.13C217.665 63.71 216.995 63.28 216.095 62.84C215.435 62.52 214.905 62.23 214.505 61.97C214.125 61.71 213.795 61.37 213.515 60.95C213.255 60.53 213.125 60.01 213.125 59.39C213.125 58.31 213.525 57.49 214.325 56.93C215.145 56.35 216.105 56.06 217.205 56.06C218.005 56.06 218.735 56.21 219.395 56.51C219.515 56.55 219.585 56.6 219.605 56.66C219.645 56.7 219.665 56.76 219.665 56.84C219.665 57.24 219.655 57.55 219.635 57.77L219.605 59.03C219.605 59.07 219.545 59.09 219.425 59.09C219.305 59.09 219.245 59.07 219.245 59.03C219.245 58.61 219.085 58.22 218.765 57.86C218.445 57.48 218.045 57.18 217.565 56.96C217.085 56.74 216.605 56.63 216.125 56.63C215.625 56.63 215.225 56.77 214.925 57.05C214.645 57.31 214.505 57.71 214.505 58.25ZM231.342 66.44C231.422 66.44 231.482 66.49 231.522 66.59C231.562 66.67 231.552 66.73 231.492 66.77C230.752 67.35 230.082 67.76 229.482 68C228.902 68.24 228.292 68.36 227.652 68.36C226.812 68.36 226.122 68.17 225.582 67.79C225.042 67.41 224.772 66.78 224.772 65.9V58.85C224.772 58.33 224.732 57.96 224.652 57.74C224.592 57.52 224.462 57.38 224.262 57.32C224.062 57.24 223.722 57.2 223.242 57.2C223.162 57.2 223.122 57.14 223.122 57.02C223.122 56.88 223.162 56.81 223.242 56.81C224.042 56.79 224.692 56.58 225.192 56.18C225.692 55.76 225.982 55.21 226.062 54.53C226.062 54.47 226.142 54.44 226.302 54.44C226.442 54.44 226.512 54.47 226.512 54.53V56.75C227.512 56.73 228.902 56.63 230.682 56.45C230.722 56.45 230.762 56.53 230.802 56.69C230.862 56.83 230.892 56.99 230.892 57.17C230.892 57.33 230.852 57.5 230.772 57.68C230.712 57.84 230.642 57.91 230.562 57.89C229.462 57.61 228.112 57.45 226.512 57.41V64.88C226.512 65.7 226.712 66.31 227.112 66.71C227.532 67.11 228.122 67.31 228.882 67.31C229.762 67.31 230.562 67.03 231.282 66.47L231.342 66.44ZM243.319 66.32C243.379 66.32 243.429 66.36 243.469 66.44C243.529 66.5 243.539 66.56 243.499 66.62C242.179 67.78 240.719 68.36 239.119 68.36C237.959 68.36 236.969 68.09 236.149 67.55C235.329 67.01 234.699 66.3 234.259 65.42C233.839 64.54 233.629 63.6 233.629 62.6C233.629 61.42 233.909 60.34 234.469 59.36C235.029 58.36 235.789 57.58 236.749 57.02C237.729 56.44 238.799 56.15 239.959 56.15C241.079 56.15 241.939 56.45 242.539 57.05C243.139 57.65 243.439 58.49 243.439 59.57C243.439 59.85 243.409 60.05 243.349 60.17C243.309 60.29 243.229 60.35 243.109 60.35L235.669 60.38C235.629 60.82 235.609 61.18 235.609 61.46C235.609 63.2 236.019 64.61 236.839 65.69C237.659 66.77 238.809 67.31 240.289 67.31C240.889 67.31 241.399 67.23 241.819 67.07C242.259 66.91 242.749 66.66 243.289 66.32H243.319ZM238.969 56.75C238.109 56.75 237.399 57.04 236.839 57.62C236.279 58.18 235.909 58.97 235.729 59.99L241.429 59.87C241.429 58.85 241.209 58.08 240.769 57.56C240.329 57.02 239.729 56.75 238.969 56.75ZM260.199 66.29C260.279 66.29 260.329 66.34 260.349 66.44C260.389 66.54 260.379 66.61 260.319 66.65L257.019 68.21C256.899 68.25 256.819 68.27 256.779 68.27C256.519 68.27 256.299 68.05 256.119 67.61C255.939 67.17 255.839 66.56 255.819 65.78C255.079 66.56 254.299 67.19 253.479 67.67C252.679 68.15 251.779 68.39 250.779 68.39C249.939 68.39 249.159 68.15 248.439 67.67C247.739 67.19 247.169 66.52 246.729 65.66C246.309 64.78 246.099 63.78 246.099 62.66C246.099 61.24 246.449 60.03 247.149 59.03C247.849 58.03 248.729 57.28 249.789 56.78C250.849 56.28 251.899 56.03 252.939 56.03C253.999 56.03 254.959 56.29 255.819 56.81V50.09C255.819 49.37 255.739 48.85 255.579 48.53C255.439 48.21 255.189 48.05 254.829 48.05C254.569 48.05 254.109 48.19 253.449 48.47H253.389C253.309 48.47 253.249 48.43 253.209 48.35C253.189 48.25 253.209 48.18 253.269 48.14L257.079 46.28C257.119 46.26 257.169 46.25 257.229 46.25C257.269 46.25 257.319 46.28 257.379 46.34C257.459 46.38 257.499 46.43 257.499 46.49V64.7C257.499 65.42 257.579 65.94 257.739 66.26C257.919 66.58 258.199 66.74 258.579 66.74C259.159 66.74 259.679 66.6 260.139 66.32L260.199 66.29ZM251.949 67.31C252.669 67.31 253.339 67.14 253.959 66.8C254.579 66.44 255.199 65.94 255.819 65.3V58.7C255.339 58.04 254.809 57.53 254.229 57.17C253.649 56.81 252.949 56.63 252.129 56.63C250.869 56.63 249.869 57.08 249.129 57.98C248.409 58.86 248.049 60.12 248.049 61.76C248.049 62.86 248.219 63.83 248.559 64.67C248.899 65.51 249.359 66.16 249.939 66.62C250.539 67.08 251.209 67.31 251.949 67.31ZM280.532 48.92C281.792 48.92 282.852 49.01 283.712 49.19C284.572 49.37 285.432 49.68 286.292 50.12C286.432 50.2 286.512 50.27 286.532 50.33C286.552 50.39 286.582 50.54 286.622 50.78L286.982 54.35C286.982 54.41 286.922 54.45 286.802 54.47C286.702 54.47 286.642 54.44 286.622 54.38C285.702 51.04 283.642 49.37 280.442 49.37C278.762 49.37 277.282 49.74 276.002 50.48C274.722 51.22 273.732 52.28 273.032 53.66C272.332 55.02 271.982 56.61 271.982 58.43C271.982 60.17 272.362 61.77 273.122 63.23C273.902 64.67 274.942 65.81 276.242 66.65C277.562 67.49 278.992 67.91 280.532 67.91C282.172 67.91 283.502 67.51 284.522 66.71C285.542 65.91 286.322 64.69 286.862 63.05C286.862 63.01 286.912 62.99 287.012 62.99C287.152 62.99 287.222 63.02 287.222 63.08L286.922 66.38C286.902 66.62 286.872 66.77 286.832 66.83C286.792 66.89 286.712 66.96 286.592 67.04C285.552 67.54 284.572 67.89 283.652 68.09C282.752 68.29 281.712 68.39 280.532 68.39C278.432 68.39 276.552 67.98 274.892 67.16C273.252 66.32 271.972 65.15 271.052 63.65C270.132 62.15 269.672 60.43 269.672 58.49C269.672 56.61 270.142 54.95 271.082 53.51C272.022 52.05 273.312 50.92 274.952 50.12C276.612 49.32 278.472 48.92 280.532 48.92ZM290.368 68C290.308 68 290.278 67.94 290.278 67.82C290.278 67.7 290.308 67.64 290.368 67.64C290.908 67.64 291.308 67.59 291.568 67.49C291.828 67.37 292.008 67.17 292.108 66.89C292.208 66.59 292.258 66.15 292.258 65.57V50.06C292.258 49.34 292.188 48.82 292.048 48.5C291.908 48.18 291.658 48.02 291.298 48.02C290.998 48.02 290.538 48.16 289.918 48.44H289.858C289.798 48.44 289.748 48.39 289.708 48.29C289.688 48.19 289.708 48.13 289.768 48.11L293.608 46.28C293.648 46.26 293.698 46.25 293.758 46.25C293.798 46.25 293.848 46.28 293.908 46.34C293.988 46.38 294.028 46.43 294.028 46.49V65.57C294.028 66.15 294.068 66.58 294.148 66.86C294.248 67.14 294.428 67.34 294.688 67.46C294.948 67.58 295.348 67.64 295.888 67.64C295.948 67.64 295.978 67.7 295.978 67.82C295.978 67.94 295.948 68 295.888 68C295.448 68 295.088 67.99 294.808 67.97L293.128 67.94L291.508 67.97C291.228 67.99 290.848 68 290.368 68ZM301.413 52.64C300.993 52.64 300.663 52.53 300.423 52.31C300.203 52.09 300.093 51.78 300.093 51.38C300.093 50.98 300.203 50.67 300.423 50.45C300.663 50.23 300.993 50.12 301.413 50.12C301.813 50.12 302.123 50.23 302.343 50.45C302.563 50.67 302.673 50.98 302.673 51.38C302.673 51.78 302.563 52.09 302.343 52.31C302.123 52.53 301.813 52.64 301.413 52.64ZM298.893 68C298.853 68 298.833 67.94 298.833 67.82C298.833 67.7 298.853 67.64 298.893 67.64C299.433 67.64 299.833 67.59 300.093 67.49C300.373 67.37 300.563 67.17 300.663 66.89C300.763 66.59 300.813 66.15 300.813 65.57V59.96C300.813 59.24 300.733 58.72 300.573 58.4C300.433 58.08 300.183 57.92 299.823 57.92C299.463 57.92 299.013 58.06 298.473 58.34H298.443C298.363 58.34 298.303 58.29 298.263 58.19C298.223 58.09 298.233 58.02 298.293 57.98L302.193 56.18L302.313 56.15C302.353 56.15 302.403 56.18 302.463 56.24C302.523 56.28 302.553 56.33 302.553 56.39C302.553 56.53 302.543 56.93 302.523 57.59C302.503 58.25 302.493 59.03 302.493 59.93V65.57C302.493 66.17 302.543 66.61 302.643 66.89C302.743 67.17 302.923 67.37 303.183 67.49C303.443 67.59 303.843 67.64 304.383 67.64C304.443 67.64 304.473 67.7 304.473 67.82C304.473 67.94 304.443 68 304.383 68C303.923 68 303.553 67.99 303.273 67.97L301.653 67.94L300.033 67.97C299.753 67.99 299.373 68 298.893 68ZM316.676 66.32C316.736 66.32 316.786 66.36 316.826 66.44C316.886 66.5 316.896 66.56 316.856 66.62C315.536 67.78 314.076 68.36 312.476 68.36C311.316 68.36 310.326 68.09 309.506 67.55C308.686 67.01 308.056 66.3 307.616 65.42C307.196 64.54 306.986 63.6 306.986 62.6C306.986 61.42 307.266 60.34 307.826 59.36C308.386 58.36 309.146 57.58 310.106 57.02C311.086 56.44 312.156 56.15 313.316 56.15C314.436 56.15 315.296 56.45 315.896 57.05C316.496 57.65 316.796 58.49 316.796 59.57C316.796 59.85 316.766 60.05 316.706 60.17C316.666 60.29 316.586 60.35 316.466 60.35L309.026 60.38C308.986 60.82 308.966 61.18 308.966 61.46C308.966 63.2 309.376 64.61 310.196 65.69C311.016 66.77 312.166 67.31 313.646 67.31C314.246 67.31 314.756 67.23 315.176 67.07C315.616 66.91 316.106 66.66 316.646 66.32H316.676ZM312.326 56.75C311.466 56.75 310.756 57.04 310.196 57.62C309.636 58.18 309.266 58.97 309.086 59.99L314.786 59.87C314.786 58.85 314.566 58.08 314.126 57.56C313.686 57.02 313.086 56.75 312.326 56.75ZM333.402 67.64C333.462 67.64 333.492 67.7 333.492 67.82C333.492 67.94 333.462 68 333.402 68C332.942 68 332.582 67.99 332.322 67.97L330.702 67.94L329.052 67.97C328.792 67.99 328.432 68 327.972 68C327.912 68 327.882 67.94 327.882 67.82C327.882 67.7 327.912 67.64 327.972 67.64C328.512 67.64 328.912 67.59 329.172 67.49C329.432 67.37 329.602 67.17 329.682 66.89C329.782 66.61 329.832 66.17 329.832 65.57V60.71C329.832 59.53 329.602 58.66 329.142 58.1C328.702 57.54 328.012 57.26 327.072 57.26C326.452 57.26 325.822 57.43 325.182 57.77C324.562 58.09 323.992 58.54 323.472 59.12V65.57C323.472 66.17 323.512 66.61 323.592 66.89C323.692 67.17 323.872 67.37 324.132 67.49C324.392 67.59 324.792 67.64 325.332 67.64C325.392 67.64 325.422 67.7 325.422 67.82C325.422 67.94 325.392 68 325.332 68C324.872 68 324.512 67.99 324.252 67.97L322.632 67.94L320.982 67.97C320.722 67.99 320.362 68 319.902 68C319.842 68 319.812 67.94 319.812 67.82C319.812 67.7 319.842 67.64 319.902 67.64C320.442 67.64 320.842 67.59 321.102 67.49C321.362 67.37 321.532 67.17 321.612 66.89C321.712 66.61 321.762 66.17 321.762 65.57V59.63C321.762 58.95 321.682 58.46 321.522 58.16C321.362 57.86 321.092 57.71 320.712 57.71C320.392 57.71 319.852 57.86 319.092 58.16H319.032C318.952 58.16 318.892 58.12 318.852 58.04C318.832 57.94 318.862 57.87 318.942 57.83L322.422 56.18L322.602 56.15C322.782 56.15 322.972 56.38 323.172 56.84C323.372 57.3 323.472 57.89 323.472 58.61C324.232 57.73 324.982 57.08 325.722 56.66C326.482 56.24 327.262 56.03 328.062 56.03C329.182 56.03 330.042 56.34 330.642 56.96C331.242 57.58 331.542 58.49 331.542 59.69V65.57C331.542 66.17 331.582 66.61 331.662 66.89C331.762 67.17 331.942 67.37 332.202 67.49C332.462 67.59 332.862 67.64 333.402 67.64ZM343.78 66.44C343.86 66.44 343.92 66.49 343.96 66.59C344 66.67 343.99 66.73 343.93 66.77C343.19 67.35 342.52 67.76 341.92 68C341.34 68.24 340.73 68.36 340.09 68.36C339.25 68.36 338.56 68.17 338.02 67.79C337.48 67.41 337.21 66.78 337.21 65.9V58.85C337.21 58.33 337.17 57.96 337.09 57.74C337.03 57.52 336.9 57.38 336.7 57.32C336.5 57.24 336.16 57.2 335.68 57.2C335.6 57.2 335.56 57.14 335.56 57.02C335.56 56.88 335.6 56.81 335.68 56.81C336.48 56.79 337.13 56.58 337.63 56.18C338.13 55.76 338.42 55.21 338.5 54.53C338.5 54.47 338.58 54.44 338.74 54.44C338.88 54.44 338.95 54.47 338.95 54.53V56.75C339.95 56.73 341.34 56.63 343.12 56.45C343.16 56.45 343.2 56.53 343.24 56.69C343.3 56.83 343.33 56.99 343.33 57.17C343.33 57.33 343.29 57.5 343.21 57.68C343.15 57.84 343.08 57.91 343 57.89C341.9 57.61 340.55 57.45 338.95 57.41V64.88C338.95 65.7 339.15 66.31 339.55 66.71C339.97 67.11 340.56 67.31 341.32 67.31C342.2 67.31 343 67.03 343.72 66.47L343.78 66.44ZM348.017 58.25C348.017 58.95 348.247 59.51 348.707 59.93C349.167 60.33 349.837 60.76 350.717 61.22C351.417 61.58 351.957 61.89 352.337 62.15C352.737 62.41 353.077 62.75 353.357 63.17C353.637 63.59 353.777 64.1 353.777 64.7C353.777 65.72 353.397 66.58 352.637 67.28C351.877 67.98 350.847 68.33 349.547 68.33C348.487 68.33 347.527 68.03 346.667 67.43C346.547 67.35 346.487 67.23 346.487 67.07L346.427 64.73C346.427 64.67 346.477 64.64 346.577 64.64C346.697 64.62 346.767 64.64 346.787 64.7C347.167 65.7 347.657 66.46 348.257 66.98C348.877 67.5 349.587 67.76 350.387 67.76C351.047 67.76 351.547 67.6 351.887 67.28C352.227 66.96 352.377 66.49 352.337 65.87C352.317 65.11 352.077 64.53 351.617 64.13C351.177 63.71 350.507 63.28 349.607 62.84C348.947 62.52 348.417 62.23 348.017 61.97C347.637 61.71 347.307 61.37 347.027 60.95C346.767 60.53 346.637 60.01 346.637 59.39C346.637 58.31 347.037 57.49 347.837 56.93C348.657 56.35 349.617 56.06 350.717 56.06C351.517 56.06 352.247 56.21 352.907 56.51C353.027 56.55 353.097 56.6 353.117 56.66C353.157 56.7 353.177 56.76 353.177 56.84C353.177 57.24 353.167 57.55 353.147 57.77L353.117 59.03C353.117 59.07 353.057 59.09 352.937 59.09C352.817 59.09 352.757 59.07 352.757 59.03C352.757 58.61 352.597 58.22 352.277 57.86C351.957 57.48 351.557 57.18 351.077 56.96C350.597 56.74 350.117 56.63 349.637 56.63C349.137 56.63 348.737 56.77 348.437 57.05C348.157 57.31 348.017 57.71 348.017 58.25Z" fill="#1F2732"/>
<defs>
<clipPath id="clip0_2_284">
<rect width="22" height="20" fill="white" transform="translate(78 61)"/>
</clipPath>
</defs>
</svg>
